<svg width="41" height="39" viewBox="0 0 41 39" fill="none" xmlns="http://www.w3.org/2000/svg">
<path d="M5.125 9.75H8.54167M8.54167 9.75H35.875M8.54167 9.75V32.5C8.54167 33.362 8.90164 34.1886 9.54239 34.7981C10.1831 35.4076 11.0522 35.75 11.9583 35.75H29.0417C29.9478 35.75 30.8169 35.4076 31.4576 34.7981C32.0984 34.1886 32.4583 33.362 32.4583 32.5V9.75M13.6667 9.75V6.5C13.6667 5.63805 14.0266 4.8114 14.6674 4.2019C15.3081 3.59241 16.1772 3.25 17.0833 3.25H23.9167C24.8228 3.25 25.6919 3.59241 26.3326 4.2019C26.9734 4.8114 27.3333 5.63805 27.3333 6.5V9.75M17.0833 17.875V27.625M23.9167 17.875V27.625" stroke="#D4D4D4" stroke-width="4" stroke-linecap="round" stroke-linejoin="round"/>
</svg>
